<?xml version="1.0" encoding="utf-8"?>
<!-- Generator: Adobe Illustrator 19.1.0, SVG Export Plug-In . SVG Version: 6.00 Build 0)  -->
<svg version="1.1" id="圖層_1" xmlns="http://www.w3.org/2000/svg" xmlns:xlink="http://www.w3.org/1999/xlink" x="0px" y="0px"
	 viewBox="0 0 40 40" style="enable-background:new 0 0 40 40;" xml:space="preserve">
<style type="text/css">
	.st0{fill:#231815;}
</style>
<path class="st0" d="M20,0c5.5,0,10.5,2.2,14.2,5.9v0v0C37.8,9.5,40,14.5,40,20s-2.2,10.5-5.9,14.2L34,34.3c-3.6,3.6-8.6,5.7-14,5.7
	c-5.5,0-10.5-2.2-14.1-5.9h0l0,0C2.2,30.5,0,25.5,0,20S2.2,9.5,5.8,5.9L6,5.8C9.6,2.2,14.5,0,20,0L20,0z M17.8,10.3L17.8,10.3v7.4
	h-7.4c-1.2,0-2.2,1-2.2,2.2c0,1.2,1,2.2,2.2,2.2h7.4v7.4c0,1.2,1,2.2,2.2,2.2c1.2,0,2.2-1,2.2-2.2v-7.4h7.4c1.2,0,2.2-1,2.2-2.2
	c0-1.2-1-2.2-2.2-2.2h-7.4v-7.4c0-1.2-1-2.2-2.2-2.2C18.8,8.1,17.8,9.1,17.8,10.3L17.8,10.3z M31,9L31,9c-2.8-2.8-6.7-4.5-11-4.5
	c-4.3,0-8.1,1.7-10.9,4.4L9,9c-2.8,2.8-4.6,6.7-4.6,11c0,4.3,1.8,8.2,4.6,11c2.8,2.8,6.7,4.6,11,4.6c4.2,0,8.1-1.7,10.9-4.5L31,31
	c2.8-2.8,4.5-6.7,4.5-11C35.5,15.7,33.8,11.8,31,9L31,9L31,9z"/>
</svg>
