<?xml version="1.0" encoding="utf-8"?>
<!-- Generator: Adobe Illustrator 19.1.0, SVG Export Plug-In . SVG Version: 6.00 Build 0)  -->
<svg version="1.1" id="圖層_1" xmlns="http://www.w3.org/2000/svg" xmlns:xlink="http://www.w3.org/1999/xlink" x="0px" y="0px"
	 viewBox="0 0 40 40" style="enable-background:new 0 0 40 40;" xml:space="preserve">
<style type="text/css">
	.st0{fill:#231815;}
</style>
<path class="st0" d="M31.2,22c0-0.9,0.7-1.5,1.5-1.5c0.9,0,1.5,0.7,1.5,1.5v15c0,0.9-0.7,1.5-1.5,1.5h0H7.3c-0.9,0-1.6-0.7-1.6-1.5
	v0V22c0-0.9,0.7-1.5,1.6-1.5c0.9,0,1.6,0.7,1.6,1.5v13.5h22.3V22L31.2,22z M2.6,22.5L2.6,22.5L20,5.1l17.4,17.4
	c0.6,0.6,1.6,0.6,2.2,0c0.6-0.6,0.6-1.6,0-2.2L21.1,1.8l0,0c-0.6-0.6-1.6-0.6-2.2,0L0.5,20.3c-0.6,0.6-0.6,1.6,0,2.2
	C1.1,23.1,2,23.1,2.6,22.5L2.6,22.5z"/>
</svg>
