<?xml version="1.0" encoding="utf-8"?>
<!-- Generator: Adobe Illustrator 19.1.0, SVG Export Plug-In . SVG Version: 6.00 Build 0)  -->
<svg version="1.1" id="圖層_1" xmlns="http://www.w3.org/2000/svg" xmlns:xlink="http://www.w3.org/1999/xlink" x="0px" y="0px"
	 viewBox="0 0 40 40" style="enable-background:new 0 0 40 40;" xml:space="preserve">
<style type="text/css">
	.st0{fill:#231815;}
</style>
<path class="st0" d="M12.7,31.4c-0.5,0-0.9,0.4-0.9,0.9V34c0,0.5,0.4,0.9,0.9,0.9c0.5,0,0.9-0.4,0.9-0.9v-1.7
	C13.6,31.8,13.2,31.4,12.7,31.4L12.7,31.4z M18.7,21.9L18.7,21.9h-5.9c-0.5,0-0.9,0.4-0.9,0.9v5.9c0,0.5,0.4,0.9,0.9,0.9h5.9
	c0.5,0,0.9-0.4,0.9-0.9v-5.9C19.6,22.3,19.2,21.9,18.7,21.9L18.7,21.9z M17.7,27.8L17.7,27.8h-4.1v-4.1h4.1V27.8L17.7,27.8z
	 M17.9,31.4L17.9,31.4c-0.5,0-0.9,0.4-0.9,0.9V34c0,0.5,0.4,0.9,0.9,0.9c0.5,0,0.9-0.4,0.9-0.9v-1.7C18.8,31.8,18.4,31.4,17.9,31.4
	L17.9,31.4z M15.3,31.4L15.3,31.4c-0.5,0-0.9,0.4-0.9,0.9V34c0,0.5,0.4,0.9,0.9,0.9c0.5,0,0.9-0.4,0.9-0.9v-1.7
	C16.2,31.8,15.8,31.4,15.3,31.4L15.3,31.4z M30.2,31.4L30.2,31.4c-0.5,0-0.9,0.4-0.9,0.9V34c0,0.5,0.4,0.9,0.9,0.9
	c0.5,0,0.9-0.4,0.9-0.9v-1.7C31.1,31.8,30.7,31.4,30.2,31.4L30.2,31.4z M32.8,31.4L32.8,31.4c-0.5,0-0.9,0.4-0.9,0.9V34
	c0,0.5,0.4,0.9,0.9,0.9c0.5,0,0.9-0.4,0.9-0.9v-1.7C33.7,31.8,33.3,31.4,32.8,31.4L32.8,31.4z M35.3,31.4L35.3,31.4
	c-0.5,0-0.9,0.4-0.9,0.9V34c0,0.5,0.4,0.9,0.9,0.9c0.5,0,0.9-0.4,0.9-0.9v-1.7C36.3,31.8,35.8,31.4,35.3,31.4L35.3,31.4z M39.1,15.1
	L39.1,15.1L39.1,15.1c-0.6-0.6-1.4-1-2.2-1h-2l-6.4-11c0-0.1-0.1-0.2-0.2-0.3c-0.4-0.7-1.1-1.1-1.8-1.3c-0.7-0.2-1.6-0.2-2.3,0.2
	c-0.1,0-0.2,0.1-0.3,0.1l-22.5,13l-0.1,0c-0.8,0.4-1.3,1.2-1.4,2v0c-0.2,0.7-0.1,1.6,0.4,2.4l7.1,12.4v3.9c0,0.9,0.3,1.7,0.9,2.3
	c0.6,0.6,1.4,1,2.3,1h26.2c0.9,0,1.7-0.4,2.2-1c0.5-0.6,0.9-1.4,0.9-2.3V17.4C40,16.5,39.7,15.7,39.1,15.1L39.1,15.1z M7.6,17.4
	L7.6,17.4v8l-4.5-7.8c0,0,0-0.1,0-0.2l0,0l0,0l0,0l0,0l0,0l22.6-13l0,0c0.1,0,0.1,0.1,0.2,0.1l0,0l5.5,9.6H10.7
	C9,14.1,7.6,15.6,7.6,17.4L7.6,17.4z M36.9,35.4L36.9,35.4c0,0.1,0,0.1-0.1,0.2H10.7c0,0,0-0.1,0-0.2V17.4l0,0v0v0l0,0v0v0h0l0,0
	l0,0v0h26.1c0,0,0.1,0.1,0.1,0.2V35.4L36.9,35.4z M26.6,31.4L26.6,31.4c-0.5,0-0.9,0.4-0.9,0.9V34c0,0.5,0.4,0.9,0.9,0.9
	c0.5,0,0.9-0.4,0.9-0.9v-1.7C27.5,31.8,27.1,31.4,26.6,31.4L26.6,31.4z M24,31.4L24,31.4c-0.5,0-0.9,0.4-0.9,0.9V34
	c0,0.5,0.4,0.9,0.9,0.9s0.9-0.4,0.9-0.9v-1.7C24.9,31.8,24.5,31.4,24,31.4L24,31.4z M21.5,31.4L21.5,31.4c-0.5,0-0.9,0.4-0.9,0.9V34
	c0,0.5,0.4,0.9,0.9,0.9c0.5,0,0.9-0.4,0.9-0.9v-1.7C22.4,31.8,22,31.4,21.5,31.4L21.5,31.4z"/>
</svg>
