<?xml version="1.0" encoding="utf-8"?>
<!-- Generator: Adobe Illustrator 19.1.0, SVG Export Plug-In . SVG Version: 6.00 Build 0)  -->
<svg version="1.1" id="圖層_1" xmlns="http://www.w3.org/2000/svg" xmlns:xlink="http://www.w3.org/1999/xlink" x="0px" y="0px"
	 viewBox="0 0 40 40" style="enable-background:new 0 0 40 40;" xml:space="preserve">
<style type="text/css">
	.st0{fill:#231815;}
</style>
<path class="st0" d="M38.3,2.2H1.6C0.7,2.2,0,2.9,0,3.9v7.4c0,0.9,0.7,1.6,1.6,1.6h0.2v23.2c0,0.9,0.7,1.6,1.6,1.6h33.1
	c0.9,0,1.7-0.7,1.7-1.6V12.9h0.2c0.9,0,1.7-0.7,1.7-1.6V3.9C40,2.9,39.3,2.2,38.3,2.2L38.3,2.2z M34.9,34.5L34.9,34.5H5.1V12.9h29.8
	V34.5L34.9,34.5z M36.7,9.6L36.7,9.6H3.3V5.5h33.4V9.6L36.7,9.6z M11.9,22.1L11.9,22.1c0.7,0.7,1.6,1.1,2.6,1.1h11
	c1,0,1.9-0.4,2.6-1.1h0c0.7-0.7,1.1-1.6,1.1-2.6c0-1-0.4-1.9-1.1-2.6h0c-0.7-0.7-1.6-1.1-2.6-1.1h-11c-1,0-1.9,0.4-2.6,1.1l0,0
	c-0.7,0.7-1.1,1.6-1.1,2.6C10.8,20.5,11.2,21.4,11.9,22.1L11.9,22.1z M13.3,18.3L13.3,18.3L13.3,18.3c0.3-0.3,0.7-0.5,1.2-0.5h11
	c0.5,0,0.9,0.2,1.2,0.5h0c0.3,0.3,0.5,0.8,0.5,1.2c0,0.5-0.2,0.9-0.5,1.2h0c-0.3,0.3-0.7,0.5-1.2,0.5h-11c-0.5,0-0.9-0.2-1.2-0.5
	l0,0c-0.3-0.3-0.5-0.8-0.5-1.2C12.8,19,12.9,18.6,13.3,18.3L13.3,18.3z"/>
</svg>
