<?xml version="1.0" encoding="utf-8"?>
<!-- Generator: Adobe Illustrator 19.1.0, SVG Export Plug-In . SVG Version: 6.00 Build 0)  -->
<svg version="1.1" id="圖層_1" xmlns="http://www.w3.org/2000/svg" xmlns:xlink="http://www.w3.org/1999/xlink" x="0px" y="0px"
	 viewBox="0 0 40 40" style="enable-background:new 0 0 40 40;" xml:space="preserve">
<style type="text/css">
	.st0{fill:#231815;}
</style>
<path class="st0" d="M15.6,28.5L15.6,28.5L15.6,28.5c0.9,0.9,2.3,0.9,3.1,0l8.3-8.3l5.6-5.6c0.9-0.9,0.9-2.3,0-3.2
	c-0.9-0.9-2.3-0.9-3.2,0L24,17.1h0v0l-6.7,6.7l-6.7-6.7c-0.9-0.9-2.3-0.9-3.1,0c-0.9,0.9-0.9,2.3,0,3.1L15.6,28.5L15.6,28.5z
	 M37.8,0L37.8,0H2.2C1,0,0,1,0,2.2v35.6C0,39,1,40,2.2,40h35.6c1.2,0,2.2-1,2.2-2.2V2.2C40,1,39,0,37.8,0L37.8,0z M35.5,35.6
	L35.5,35.6H4.4V4.4h31.1V35.6L35.5,35.6z"/>
</svg>
