<?xml version="1.0" encoding="utf-8"?>
<!-- Generator: Adobe Illustrator 19.1.0, SVG Export Plug-In . SVG Version: 6.00 Build 0)  -->
<svg version="1.1" id="圖層_1" xmlns="http://www.w3.org/2000/svg" xmlns:xlink="http://www.w3.org/1999/xlink" x="0px" y="0px"
	 viewBox="0 0 40 40" style="enable-background:new 0 0 40 40;" xml:space="preserve">
<style type="text/css">
	.st0{fill:#231815;}
</style>
<path class="st0" d="M38.5,0H1.5C0.7,0,0,0.7,0,1.5v36.9C0,39.3,0.7,40,1.5,40h36.9c0.8,0,1.5-0.7,1.5-1.5V1.5C40,0.7,39.3,0,38.5,0
	L38.5,0z M36.9,36.9L36.9,36.9H3.1V12.1h33.8V36.9L36.9,36.9z M36.9,10.2L36.9,10.2H3.1V3.1h3v2.3c0,0.8,0.7,1.5,1.5,1.5
	c0.9,0,1.5-0.7,1.5-1.5V3.1h5.2v2.3c0,0.8,0.7,1.5,1.5,1.5c0.9,0,1.6-0.7,1.6-1.5V3.1h5.1v2.3c0,0.8,0.7,1.5,1.5,1.5
	c0.9,0,1.5-0.7,1.5-1.5V3.1h5.2v2.3c0,0.8,0.7,1.5,1.6,1.5c0.9,0,1.5-0.7,1.5-1.5V3.1h3V10.2L36.9,10.2z M14.6,33.4L14.6,33.4
	c0.5,0.5,1.1,0.8,1.8,0.8c0.7,0,1.4-0.3,1.8-0.8c0.5-0.5,0.8-1.1,0.8-1.9c0-0.7-0.3-1.4-0.8-1.8v0c-0.5-0.5-1.1-0.8-1.8-0.8
	c-0.7,0-1.4,0.3-1.8,0.8l0,0c-0.5,0.5-0.8,1.1-0.8,1.8C13.8,32.2,14.1,32.9,14.6,33.4L14.6,33.4L14.6,33.4z M15.9,31L15.9,31
	L15.9,31c0.1-0.1,0.3-0.2,0.5-0.2c0.2,0,0.4,0.1,0.6,0.2l0,0c0.1,0.1,0.2,0.3,0.2,0.5c0,0.2-0.1,0.4-0.2,0.5v0
	c-0.1,0.2-0.3,0.2-0.6,0.2c-0.2,0-0.4-0.1-0.5-0.2v0c-0.1-0.1-0.2-0.3-0.2-0.5C15.7,31.3,15.8,31.1,15.9,31L15.9,31z M28.8,26.4
	L28.8,26.4c0.5,0.5,1.1,0.8,1.9,0.8c0.7,0,1.4-0.3,1.8-0.8c0.5-0.5,0.8-1.1,0.8-1.8c0-0.7-0.3-1.4-0.8-1.9c-0.5-0.5-1.1-0.8-1.8-0.8
	c-0.7,0-1.4,0.3-1.9,0.8c-0.5,0.5-0.8,1.1-0.8,1.9C28,25.3,28.3,25.9,28.8,26.4L28.8,26.4z M30.1,24L30.1,24L30.1,24
	c0.2-0.2,0.3-0.2,0.6-0.2c0.2,0,0.4,0.1,0.5,0.2v0c0.1,0.1,0.2,0.3,0.2,0.5c0,0.2-0.1,0.4-0.2,0.5l0,0c-0.1,0.1-0.3,0.2-0.5,0.2
	c-0.2,0-0.4-0.1-0.5-0.2h0c-0.1-0.1-0.2-0.3-0.2-0.5C29.9,24.3,30,24.1,30.1,24L30.1,24z M7.5,26.4L7.5,26.4
	c0.5,0.5,1.1,0.8,1.8,0.8c0.7,0,1.4-0.3,1.9-0.8c0.5-0.5,0.8-1.1,0.8-1.8c0-0.7-0.3-1.4-0.8-1.9c-0.5-0.5-1.1-0.8-1.9-0.8
	c-0.7,0-1.4,0.3-1.8,0.8c-0.5,0.5-0.8,1.1-0.8,1.9C6.7,25.3,7,25.9,7.5,26.4L7.5,26.4z M8.8,24L8.8,24L8.8,24
	c0.1-0.2,0.3-0.2,0.5-0.2c0.2,0,0.4,0.1,0.5,0.2v0c0.2,0.1,0.2,0.3,0.2,0.5c0,0.2-0.1,0.4-0.2,0.5l0,0c-0.1,0.1-0.3,0.2-0.5,0.2
	c-0.2,0-0.4-0.1-0.5-0.2l0,0c-0.1-0.1-0.2-0.3-0.2-0.5C8.6,24.3,8.7,24.1,8.8,24L8.8,24z M28.8,19.4L28.8,19.4
	c0.5,0.5,1.1,0.8,1.9,0.8c0.7,0,1.4-0.3,1.8-0.8c0.5-0.5,0.8-1.1,0.8-1.9c0-0.7-0.3-1.4-0.8-1.9l0,0C32,15.3,31.4,15,30.6,15
	c-0.7,0-1.4,0.3-1.9,0.8l0,0c-0.5,0.5-0.8,1.1-0.8,1.9C28,18.3,28.3,19,28.8,19.4L28.8,19.4L28.8,19.4z M30.1,17L30.1,17L30.1,17
	c0.2-0.2,0.3-0.2,0.6-0.2c0.2,0,0.4,0.1,0.5,0.2c0.1,0.1,0.2,0.3,0.2,0.5c0,0.2-0.1,0.4-0.2,0.5c-0.1,0.1-0.3,0.2-0.5,0.2
	c-0.2,0-0.4-0.1-0.6-0.2c-0.1-0.1-0.2-0.3-0.2-0.5C29.9,17.4,30,17.2,30.1,17L30.1,17z M21.7,33.4L21.7,33.4
	c0.5,0.5,1.1,0.8,1.8,0.8c0.7,0,1.4-0.3,1.8-0.8c0.5-0.5,0.8-1.1,0.8-1.9c0-0.7-0.3-1.4-0.8-1.8v0c-0.5-0.5-1.1-0.8-1.8-0.8
	c-0.7,0-1.4,0.3-1.8,0.8v0c-0.5,0.5-0.8,1.1-0.8,1.8C20.9,32.2,21.2,32.9,21.7,33.4L21.7,33.4z M23,31L23,31L23,31
	c0.2-0.1,0.3-0.2,0.5-0.2c0.2,0,0.4,0.1,0.5,0.2h0c0.1,0.1,0.2,0.3,0.2,0.5c0,0.2-0.1,0.4-0.2,0.5l0,0c-0.1,0.2-0.3,0.2-0.5,0.2
	c-0.2,0-0.4-0.1-0.5-0.2v0c-0.1-0.1-0.2-0.3-0.2-0.5C22.8,31.3,22.9,31.1,23,31L23,31z M14.6,26.4L14.6,26.4
	c0.5,0.5,1.1,0.8,1.8,0.8c0.7,0,1.4-0.3,1.8-0.8c0.5-0.5,0.8-1.1,0.8-1.8c0-0.7-0.3-1.4-0.8-1.9c-0.5-0.5-1.1-0.8-1.8-0.8
	c-0.7,0-1.4,0.3-1.8,0.8h0c-0.5,0.5-0.8,1.1-0.8,1.9C13.8,25.3,14.1,25.9,14.6,26.4L14.6,26.4L14.6,26.4z M15.9,24L15.9,24L15.9,24
	c0.1-0.2,0.3-0.2,0.5-0.2c0.2,0,0.4,0.1,0.6,0.2v0c0.1,0.1,0.2,0.3,0.2,0.5c0,0.2-0.1,0.4-0.2,0.5l0,0c-0.1,0.1-0.3,0.2-0.6,0.2
	c-0.2,0-0.4-0.1-0.5-0.2l0,0c-0.1-0.1-0.2-0.3-0.2-0.5C15.7,24.3,15.8,24.1,15.9,24L15.9,24z M21.7,26.4L21.7,26.4
	c0.5,0.5,1.1,0.8,1.8,0.8c0.7,0,1.4-0.3,1.8-0.8c0.5-0.5,0.8-1.1,0.8-1.8c0-0.7-0.3-1.4-0.8-1.9c-0.5-0.5-1.1-0.8-1.8-0.8
	c-0.7,0-1.4,0.3-1.8,0.8c-0.5,0.5-0.8,1.1-0.8,1.9C20.9,25.3,21.2,25.9,21.7,26.4L21.7,26.4z M23,24L23,24L23,24
	c0.2-0.2,0.3-0.2,0.5-0.2c0.2,0,0.4,0.1,0.5,0.2l0,0c0.1,0.1,0.2,0.3,0.2,0.5c0,0.2-0.1,0.4-0.2,0.5h0c-0.1,0.1-0.3,0.2-0.5,0.2
	c-0.2,0-0.4-0.1-0.5-0.2l0,0c-0.1-0.1-0.2-0.3-0.2-0.5C22.8,24.3,22.9,24.1,23,24L23,24z M7.5,33.4L7.5,33.4
	c0.5,0.5,1.1,0.8,1.8,0.8c0.7,0,1.4-0.3,1.9-0.8c0.5-0.5,0.8-1.1,0.8-1.9c0-0.7-0.3-1.4-0.8-1.8v0c-0.5-0.5-1.1-0.8-1.9-0.8
	c-0.7,0-1.4,0.3-1.8,0.8v0c-0.5,0.5-0.8,1.1-0.8,1.8C6.7,32.2,7,32.9,7.5,33.4L7.5,33.4z M8.8,31L8.8,31L8.8,31
	c0.1-0.1,0.3-0.2,0.5-0.2c0.2,0,0.4,0.1,0.5,0.2l0,0c0.2,0.1,0.2,0.3,0.2,0.5c0,0.2-0.1,0.4-0.2,0.5v0c-0.1,0.2-0.3,0.2-0.5,0.2
	c-0.2,0-0.4-0.1-0.5-0.2v0c-0.1-0.1-0.2-0.3-0.2-0.5C8.6,31.3,8.7,31.1,8.8,31L8.8,31z M21.7,19.4L21.7,19.4
	c0.5,0.5,1.1,0.8,1.8,0.8c0.7,0,1.4-0.3,1.8-0.8c0.5-0.5,0.8-1.1,0.8-1.9c0-0.7-0.3-1.4-0.8-1.9l0,0c-0.5-0.5-1.1-0.8-1.8-0.8
	c-0.7,0-1.4,0.3-1.8,0.8l0,0c-0.5,0.5-0.8,1.1-0.8,1.9C20.9,18.3,21.2,19,21.7,19.4L21.7,19.4L21.7,19.4z M23,17L23,17L23,17
	c0.2-0.2,0.3-0.2,0.5-0.2c0.2,0,0.4,0.1,0.5,0.2h0c0.1,0.1,0.2,0.3,0.2,0.5c0,0.2-0.1,0.4-0.2,0.5c-0.1,0.1-0.3,0.2-0.5,0.2
	c-0.2,0-0.4-0.1-0.5-0.2c-0.1-0.1-0.2-0.3-0.2-0.5C22.8,17.4,22.9,17.2,23,17L23,17z M14.6,19.4L14.6,19.4c0.5,0.5,1.1,0.8,1.8,0.8
	c0.7,0,1.4-0.3,1.8-0.8c0.5-0.5,0.8-1.1,0.8-1.9c0-0.7-0.3-1.4-0.8-1.9l0,0c-0.5-0.5-1.1-0.8-1.8-0.8c-0.7,0-1.4,0.3-1.8,0.8h0
	c-0.5,0.5-0.8,1.1-0.8,1.9C13.8,18.3,14.1,19,14.6,19.4L14.6,19.4L14.6,19.4z M15.9,17L15.9,17L15.9,17c0.1-0.2,0.3-0.2,0.5-0.2
	c0.2,0,0.4,0.1,0.6,0.2c0.1,0.1,0.2,0.3,0.2,0.5c0,0.2-0.1,0.4-0.2,0.5c-0.1,0.1-0.3,0.2-0.6,0.2c-0.2,0-0.4-0.1-0.5-0.2
	c-0.1-0.1-0.2-0.3-0.2-0.5C15.7,17.4,15.8,17.2,15.9,17L15.9,17z"/>
</svg>
