<?xml version="1.0" encoding="utf-8"?>
<!-- Generator: Adobe Illustrator 19.1.0, SVG Export Plug-In . SVG Version: 6.00 Build 0)  -->
<svg version="1.1" id="圖層_1" xmlns="http://www.w3.org/2000/svg" xmlns:xlink="http://www.w3.org/1999/xlink" x="0px" y="0px"
	 viewBox="0 0 40 40" style="enable-background:new 0 0 40 40;" xml:space="preserve">
<style type="text/css">
	.st0{fill:#231815;}
</style>
<path class="st0" d="M20,0c5.5,0,10.5,2.2,14.1,5.9v0v0C37.8,9.5,40,14.5,40,20s-2.2,10.5-5.9,14.2l-0.1,0.1
	c-3.6,3.6-8.6,5.7-14,5.7c-5.5,0-10.5-2.2-14.2-5.9h0C2.2,30.5,0,25.5,0,20S2.2,9.5,5.8,5.9L6,5.8C9.6,2.2,14.5,0,20,0L20,0z
	 M25.3,11.6L25.3,11.6L20,16.9l-5.3-5.3c-0.9-0.9-2.3-0.9-3.2,0c-0.9,0.9-0.9,2.3,0,3.1l5.3,5.3l-5.3,5.3c-0.9,0.9-0.9,2.3,0,3.1
	c0.9,0.8,2.3,0.8,3.2,0l5.3-5.3l5.3,5.3c0.9,0.8,2.3,0.8,3.1,0c0.9-0.9,0.9-2.3,0-3.1L23.1,20l5.3-5.3c0.9-0.9,0.9-2.3,0-3.1
	C27.5,10.7,26.1,10.7,25.3,11.6L25.3,11.6z M31,9L31,9c-2.8-2.8-6.7-4.5-11-4.5c-4.3,0-8.1,1.7-10.9,4.4L9,9
	c-2.8,2.8-4.6,6.7-4.6,11c0,4.3,1.7,8.2,4.6,11l0,0c2.8,2.8,6.7,4.6,11,4.6c4.3,0,8.1-1.7,10.9-4.5L31,31c2.8-2.8,4.5-6.7,4.5-11
	C35.6,15.7,33.8,11.8,31,9L31,9L31,9z"/>
</svg>
