<?xml version="1.0" encoding="utf-8"?>
<!-- Generator: Adobe Illustrator 19.1.0, SVG Export Plug-In . SVG Version: 6.00 Build 0)  -->
<svg version="1.1" id="圖層_1" xmlns="http://www.w3.org/2000/svg" xmlns:xlink="http://www.w3.org/1999/xlink" x="0px" y="0px"
	 viewBox="0 0 40 40" style="enable-background:new 0 0 40 40;" xml:space="preserve">
<style type="text/css">
	.st0{fill:#231815;}
</style>
<path class="st0" d="M31.1,22c0-0.8,0.7-1.5,1.5-1.5c0.9,0,1.5,0.7,1.5,1.5v15c0,0.9-0.7,1.5-1.5,1.5h0H7.3c-0.9,0-1.5-0.7-1.5-1.5
	v0V22c0-0.8,0.7-1.5,1.5-1.5c0.9,0,1.5,0.7,1.5,1.5v13.5h4.9V20.4c0-0.5,0.4-0.9,0.9-0.9h0h10.5c0.5,0,0.9,0.4,0.9,0.9v0v15.1h4.9
	V22L31.1,22z M15.6,35.6L15.6,35.6h8.7V21.3h-8.7V35.6L15.6,35.6z M2.6,22.4L2.6,22.4c-0.6,0.6-1.6,0.6-2.2,0
	c-0.6-0.6-0.6-1.6,0-2.2L18.9,1.8c0.6-0.6,1.6-0.6,2.2,0l0,0l18.4,18.4c0.6,0.6,0.6,1.6,0,2.2c-0.6,0.6-1.6,0.6-2.2,0L20,5.1
	L2.6,22.4L2.6,22.4z"/>
</svg>
