<?xml version="1.0" encoding="utf-8"?>
<!-- Generator: Adobe Illustrator 19.1.0, SVG Export Plug-In . SVG Version: 6.00 Build 0)  -->
<svg version="1.1" id="圖層_1" xmlns="http://www.w3.org/2000/svg" xmlns:xlink="http://www.w3.org/1999/xlink" x="0px" y="0px"
	 viewBox="0 0 40 40" style="enable-background:new 0 0 40 40;" xml:space="preserve">
<style type="text/css">
	.st0{fill:#231815;}
</style>
<path class="st0" d="M20,0c5.5,0,10.5,2.2,14.2,5.9L34.2,6C37.8,9.6,40,14.5,40,20c0,2.2-0.3,4.2-1,6.2c-0.6,1.9-1.5,3.6-2.6,5.2
	v7.1c0,0.9-0.7,1.5-1.5,1.5h0H20c-5.5,0-10.5-2.2-14.1-5.8v0l0,0C2.2,30.5,0,25.5,0,20C0,14.5,2.2,9.5,5.9,5.9h0
	C9.5,2.2,14.5,0,20,0L20,0z M10,16L10,16H30c0.5,0,0.9-0.4,0.9-0.9c0-0.5-0.4-0.9-0.9-0.9H10c-0.5,0-0.9,0.4-0.9,0.9
	C9.1,15.6,9.5,16,10,16L10,16z M10,20.9L10,20.9H30c0.5,0,0.9-0.4,0.9-0.9c0-0.5-0.4-0.9-0.9-0.9H10c-0.5,0-0.9,0.4-0.9,0.9
	C9.1,20.5,9.5,20.9,10,20.9L10,20.9z M10,25.8L10,25.8H30c0.5,0,0.9-0.4,0.9-0.9c0-0.5-0.4-0.9-0.9-0.9H10c-0.5,0-0.9,0.4-0.9,0.9
	C9.1,25.4,9.5,25.8,10,25.8L10,25.8z M32,8L32,8c-3.1-3.1-7.3-5-12-5S11.1,5,8,8l0,0v0c-3,3.1-4.9,7.3-4.9,12c0,4.7,1.9,8.9,5,11.9
	h0c3.1,3.1,7.3,5,12,5h13.4v-6h0c0-0.3,0.1-0.6,0.3-0.9c1-1.4,1.9-3,2.4-4.7c0.5-1.7,0.8-3.4,0.8-5.2C36.9,15.4,35.1,11.1,32,8L32,8
	L32,8z"/>
</svg>
