<?xml version="1.0" encoding="utf-8"?>
<!-- Generator: Adobe Illustrator 19.1.0, SVG Export Plug-In . SVG Version: 6.00 Build 0)  -->
<svg version="1.1" id="圖層_1" xmlns="http://www.w3.org/2000/svg" xmlns:xlink="http://www.w3.org/1999/xlink" x="0px" y="0px"
	 viewBox="0 0 40 40" style="enable-background:new 0 0 40 40;" xml:space="preserve">
<style type="text/css">
	.st0{fill:#231815;}
</style>
<path class="st0" d="M25.7,27.6H14.2c-1.1,0-2.1,0.2-3.1,0.6c-3,1.2-5,4.2-5,7.4v1.3h27.5v-1.3c0-2.7-1.4-5.2-3.6-6.7
	c-0.4-0.3-0.9-0.5-1.4-0.8c-0.5-0.2-1-0.3-1.5-0.5C26.8,27.7,26.3,27.6,25.7,27.6L25.7,27.6z M26.7,24.6L26.7,24.6
	c0.4,0,0.8,0.1,1.2,0.2c0.7,0.1,1.4,0.4,2.1,0.6c4.1,1.7,6.9,5.8,6.9,10.3v2.8c0,0.9-0.7,1.5-1.6,1.5h0H4.7c-0.9,0-1.6-0.7-1.6-1.5
	v0v-2.8c0-4.5,2.7-8.5,6.9-10.3c1-0.4,2.2-0.7,3.3-0.8c-4-2.3-6.5-6.7-6.5-11.4C6.8,5.9,12.8,0,20,0c7.3,0,13.2,6,13.2,13.2
	C33.2,17.9,30.7,22.2,26.7,24.6L26.7,24.6z M20,3.1L20,3.1c-4.1,0-7.8,2.5-9.4,6.2c-0.5,1.2-0.8,2.5-0.8,3.9c0,4,2.5,7.8,6.2,9.3
	c2.5,1.1,5.4,1,7.9,0c3.8-1.6,6.2-5.3,6.2-9.3C30.1,7.7,25.6,3.1,20,3.1L20,3.1z"/>
</svg>
