<?xml version="1.0" encoding="utf-8"?>
<!-- Generator: Adobe Illustrator 19.1.0, SVG Export Plug-In . SVG Version: 6.00 Build 0)  -->
<svg version="1.1" id="圖層_1" xmlns="http://www.w3.org/2000/svg" xmlns:xlink="http://www.w3.org/1999/xlink" x="0px" y="0px"
	 viewBox="0 0 40 40" style="enable-background:new 0 0 40 40;" xml:space="preserve">
<style type="text/css">
	.st0{fill:#231815;}
</style>
<path class="st0" d="M6.6,0h18.2c0.4,0,0.8,0.2,1.1,0.4l11.1,11.1c0.3,0.3,0.5,0.7,0.5,1.1v0v23.2c0,1.1-0.5,2.2-1.2,2.9l0,0l0,0
	c-0.7,0.7-1.8,1.2-2.9,1.2H6.6c-1.1,0-2.1-0.5-2.9-1.2l0,0C3,38,2.5,37,2.5,35.9V4.1C2.5,3,3,2,3.7,1.2C4.4,0.5,5.5,0,6.6,0L6.6,0z
	 M11,30.6L11,30.6h15.4c0.5,0,0.9-0.4,0.9-0.9c0-0.5-0.4-0.9-0.9-0.9H11c-0.5,0-0.9,0.4-0.9,0.9C10.1,30.2,10.5,30.6,11,30.6
	L11,30.6z M11,24.1L11,24.1h10.5c0.5,0,0.9-0.4,0.9-0.9c0-0.5-0.4-0.9-0.9-0.9H11c-0.5,0-0.9,0.4-0.9,0.9
	C10.1,23.7,10.5,24.1,11,24.1L11,24.1z M11,17.6L11,17.6h17.9c0.5,0,0.9-0.4,0.9-0.9c0-0.5-0.4-0.9-0.9-0.9H11
	c-0.5,0-0.9,0.4-0.9,0.9C10.1,17.2,10.5,17.6,11,17.6L11,17.6z M23.9,3.1L23.9,3.1H6.6c-0.3,0-0.5,0.1-0.7,0.3
	C5.7,3.6,5.6,3.8,5.6,4.1v31.8c0,0.3,0.1,0.5,0.3,0.7l0,0c0.2,0.2,0.4,0.3,0.7,0.3h26.8c0.3,0,0.5-0.1,0.7-0.3l0,0
	c0.2-0.2,0.3-0.4,0.3-0.7V13.6h-7c-1,0-1.8-0.4-2.5-1l0-0.1c-0.6-0.6-1-1.5-1-2.4V3.1L23.9,3.1z M32.9,11.7L32.9,11.7l-7.1-7.1v5.4
	c0,0.4,0.2,0.8,0.4,1.1l0,0c0.3,0.3,0.7,0.5,1.2,0.5H32.9L32.9,11.7z"/>
</svg>
