<?xml version="1.0" encoding="utf-8"?>
<!-- Generator: Adobe Illustrator 19.1.0, SVG Export Plug-In . SVG Version: 6.00 Build 0)  -->
<svg version="1.1" id="圖層_1" xmlns="http://www.w3.org/2000/svg" xmlns:xlink="http://www.w3.org/1999/xlink" x="0px" y="0px"
	 viewBox="0 0 40 40" style="enable-background:new 0 0 40 40;" xml:space="preserve">
<style type="text/css">
	.st0{fill:#231815;}
</style>
<path class="st0" d="M20.6,2.4l14.6,7.3c0.3,0.1,0.5,0.3,0.6,0.6l4.1,7.2c0.4,0.7,0.1,1.5-0.5,1.9c0,0-0.1,0-0.2,0.1L36,21v8.1
	c0,0.6-0.4,1.1-0.9,1.3l-14.5,7.2c-0.4,0.2-0.9,0.2-1.2,0l0,0L4.8,30.3c-0.5-0.2-0.8-0.7-0.8-1.2l0,0V21l-3.3-1.6
	c-0.7-0.3-1-1.2-0.6-1.8l0-0.1l0,0l4-7.2c0.2-0.3,0.4-0.5,0.7-0.6l14.5-7.2C19.8,2.2,20.2,2.2,20.6,2.4L20.6,2.4z M19.2,34.5
	L19.2,34.5V21.3l-2.3,4c-0.2,0.4-0.7,0.5-1.1,0.3l0,0l-9-4.5v7.1L19.2,34.5L19.2,34.5z M19.2,16.8L19.2,16.8V5.5L7.9,11.2L19.2,16.8
	L19.2,16.8z M20.8,5.5L20.8,5.5v11.3l11.3-5.6L20.8,5.5L20.8,5.5z M20.8,21.3L20.8,21.3v13.1l12.4-6.2v-7.1l-9,4.5l0,0
	c-0.4,0.2-0.9,0.1-1.1-0.3L20.8,21.3L20.8,21.3z M33.8,12.2L33.8,12.2l-12.6,6.3l3,5.3l12.6-6.3L33.8,12.2L33.8,12.2z M6.2,19
	L6.2,19l9.7,4.9l3-5.3L6.2,12.2l-3,5.3l2.7,1.3C6,18.9,6.1,18.9,6.2,19L6.2,19z"/>
</svg>
