<?xml version="1.0" encoding="utf-8"?>
<!-- Generator: Adobe Illustrator 19.1.0, SVG Export Plug-In . SVG Version: 6.00 Build 0)  -->
<svg version="1.1" id="圖層_1" xmlns="http://www.w3.org/2000/svg" xmlns:xlink="http://www.w3.org/1999/xlink" x="0px" y="0px"
	 viewBox="0 0 40 40" style="enable-background:new 0 0 40 40;" xml:space="preserve">
<style type="text/css">
	.st0{fill:#231815;}
</style>
<path class="st0" d="M6.7,0L6.7,0h26.7c0.9,0,1.6,0.7,1.6,1.6v0v36.9c0,0.9-0.7,1.5-1.6,1.5h0H6.7c-0.9,0-1.5-0.7-1.5-1.5v0V1.6
	C5.1,0.7,5.8,0,6.7,0L6.7,0z M14.8,34.3L14.8,34.3h10.3c0.5,0,0.9-0.4,0.9-0.9c0-0.5-0.4-0.9-0.9-0.9H14.8c-0.5,0-0.9,0.4-0.9,0.9
	C13.9,33.9,14.3,34.3,14.8,34.3L14.8,34.3z M31.8,3.1L31.8,3.1H8.2v33.9h23.6V3.1L31.8,3.1z"/>
</svg>
