<?xml version="1.0" encoding="utf-8"?>
<!-- Generator: Adobe Illustrator 19.1.0, SVG Export Plug-In . SVG Version: 6.00 Build 0)  -->
<svg version="1.1" id="圖層_1" xmlns="http://www.w3.org/2000/svg" xmlns:xlink="http://www.w3.org/1999/xlink" x="0px" y="0px"
	 viewBox="0 0 40 40" style="enable-background:new 0 0 40 40;" xml:space="preserve">
<style type="text/css">
	.st0{fill:#231815;}
</style>
<path class="st0" d="M39.5,37.1l-7.2-7.2c1.2-1.4,2.1-3,2.8-4.7c0.9-2.1,1.4-4.5,1.4-7c0-2.4-0.5-4.8-1.3-6.9l0-0.1
	c-0.9-2.2-2.2-4.1-3.9-5.8l-0.1-0.1c-1.7-1.7-3.7-3-5.9-4h0c-2.1-0.9-4.5-1.4-7-1.4c-5,0-9.6,2-12.9,5.3C3.7,7,2.3,9,1.4,11.3
	c-0.9,2.2-1.4,4.5-1.4,7c0,2.4,0.5,4.7,1.3,6.9l0,0.1c0.9,2.2,2.3,4.2,3.9,5.9h0c1.7,1.7,3.7,3,5.9,4c2.1,0.9,4.5,1.4,7,1.4
	c2.5,0,4.8-0.5,7-1.4c1.7-0.7,3.3-1.7,4.7-2.8l7.2,7.2c0.7,0.6,1.7,0.6,2.4,0C40.2,38.8,40.2,37.8,39.5,37.1L39.5,37.1z M28.8,28.8
	L28.8,28.8L28.8,28.8L28.8,28.8c-1.4,1.4-3,2.5-4.8,3.2c-1.8,0.7-3.7,1.1-5.7,1.1c-2,0-4-0.4-5.7-1.1c-1.8-0.7-3.4-1.9-4.8-3.2l0,0
	c-1.4-1.4-2.5-3-3.2-4.9l0-0.1c-0.7-1.7-1.1-3.6-1.1-5.6c0-2,0.4-4,1.1-5.7c0.7-1.8,1.8-3.4,3.2-4.9c2.7-2.7,6.4-4.4,10.5-4.4
	c2,0,3.9,0.4,5.7,1.1l0,0c1.8,0.7,3.4,1.9,4.8,3.2l0.1,0.1c1.3,1.4,2.4,3,3.1,4.8l0,0.1c0.7,1.7,1.1,3.6,1.1,5.6
	c0,2-0.4,3.9-1.1,5.7C31.3,25.8,30.2,27.4,28.8,28.8L28.8,28.8z M13.7,7.4L13.7,7.4c-0.7,0.3-1.4,0.6-2,1.1C11,8.9,10.4,9.3,9.9,9.9
	l0,0l0,0c-0.5,0.6-1,1.1-1.4,1.8v0c-0.4,0.6-0.8,1.3-1.1,2c-0.2,0.5,0,1.1,0.5,1.3c0.5,0.2,1.1,0,1.3-0.5c0.3-0.6,0.5-1.1,0.9-1.7
	c0.4-0.5,0.7-1,1.2-1.5c0.5-0.4,1-0.9,1.5-1.2c0.5-0.3,1.1-0.6,1.6-0.9c0.5-0.2,0.8-0.8,0.5-1.3C14.8,7.4,14.2,7.1,13.7,7.4
	L13.7,7.4z M29,17.2L29,17.2c-0.5,0-1,0.5-1,1c0,1.3-0.2,2.6-0.7,3.7l0,0c-0.5,1.1-1.2,2.2-2.1,3.1c-0.9,0.9-2,1.6-3.2,2.1
	c-1.2,0.5-2.5,0.7-3.7,0.7c-0.6,0-1,0.5-1,1c0,0.5,0.4,1,1,1c1.5,0,3.1-0.3,4.5-0.9c1.4-0.6,2.7-1.4,3.8-2.6c1.1-1.1,2-2.4,2.5-3.8
	l0-0.1c0.6-1.4,0.9-3,0.9-4.5C30,17.7,29.6,17.2,29,17.2L29,17.2z"/>
</svg>
