<?xml version="1.0" encoding="utf-8"?>
<!-- Generator: Adobe Illustrator 19.1.0, SVG Export Plug-In . SVG Version: 6.00 Build 0)  -->
<svg version="1.1" id="圖層_1" xmlns="http://www.w3.org/2000/svg" xmlns:xlink="http://www.w3.org/1999/xlink" x="0px" y="0px"
	 viewBox="0 0 40 40" style="enable-background:new 0 0 40 40;" xml:space="preserve">
<style type="text/css">
	.st0{fill-rule:evenodd;clip-rule:evenodd;fill:#231815;}
</style>
<path class="st0" d="M31.3,27.5c0.9,0,1.6,0.7,1.6,1.5c0,0.9-0.7,1.5-1.6,1.5c-0.9,0-1.5-0.7-1.5-1.5C29.8,28.2,30.5,27.5,31.3,27.5
	L31.3,27.5z M27.1,20.7L27.1,20.7h8.5l-2.5-5h-6V20.7L27.1,20.7z M36.5,22.5L36.5,22.5h-9.4v5c0.7,0.1,1.3,0.7,1.3,1.5
	c0,0.8,0.3,1.5,0.9,2.1l0,0c0.5,0.5,1.3,0.9,2.1,0.9c0.8,0,1.5-0.3,2-0.8l0.1-0.1c0.5-0.5,0.8-1.2,0.8-2v0c0-0.9,0.7-1.5,1.6-1.5
	h1.1v-4.1L36.5,22.5L36.5,22.5z M37.1,30.5L37.1,30.5h1.3h0c0.9,0,1.5-0.7,1.5-1.5v-5.9h0c0-0.2,0-0.5-0.2-0.7l-4.4-8.8
	c-0.2-0.6-0.8-1-1.4-1h-6.9v-6v0c0-0.9-0.7-1.5-1.5-1.5H1.6h0C0.7,5,0,5.7,0,6.5V29v0c0,0.9,0.7,1.5,1.6,1.5h3.3
	c0.3,1,0.8,2,1.6,2.7C7.5,34.3,9,35,10.7,35c1.7,0,3.2-0.7,4.2-1.7c0.7-0.7,1.3-1.7,1.6-2.7h9h0c0.3,1,0.8,2,1.5,2.7l0,0
	c1.1,1.1,2.6,1.7,4.2,1.7c1.6,0,3.1-0.6,4.1-1.7l0.1-0.1C36.3,32.5,36.8,31.6,37.1,30.5L37.1,30.5z M24,8.1L24,8.1v6.1v0v13.3h-8.9
	c-0.8,0-1.6,0.7-1.6,1.5v0c0,0.8-0.3,1.5-0.9,2c-0.5,0.5-1.3,0.9-2.1,0.9c-0.8,0-1.5-0.3-2.1-0.9c-0.5-0.5-0.9-1.2-0.9-2.1
	c0-0.9-0.7-1.5-1.6-1.5h0H3.1V8.1H24L24,8.1z M10.7,27.5L10.7,27.5c0.9,0,1.6,0.7,1.6,1.5c0,0.9-0.7,1.5-1.6,1.5
	c-0.8,0-1.5-0.7-1.5-1.5C9.1,28.2,9.8,27.5,10.7,27.5L10.7,27.5z"/>
</svg>
